<svg width="82" height="67" viewBox="0 0 82 67" fill="none" xmlns="http://www.w3.org/2000/svg">
<path d="M6.97962 6.59668C3.62741 7.21001 1 9.74001 1 12.8833L1 45.5433C1 48.61 3.53681 51.2167 6.88901 51.83L7.07022 60.3634C7.16082 63.2001 9.78822 65.5001 13.1404 65.5001H69.0408C72.393 65.5001 75.0204 63.2001 75.0204 60.3634L74.8392 51.9067C78.3726 51.37 81 48.7633 81 45.62V12.8833C81 9.97001 78.735 7.51667 75.7452 6.75001C75.3828 3.53001 72.2118 1.00001 68.316 1.00001H14.3182C10.6036 1.00001 7.43262 3.45335 6.97962 6.59668ZM3.62741 45.5433L3.62741 12.8067C3.62741 10.89 5.07701 9.35667 7.07022 8.82001C7.79502 11.35 10.2412 13.2667 13.231 13.65L13.231 45.5433C13.231 47.8433 11.0566 49.6833 8.42922 49.6833C5.80181 49.6833 3.62741 47.8433 3.62741 45.5433ZM72.2118 51.83L72.393 60.3634C72.393 61.9734 70.8528 63.2767 69.0408 63.2767L41.1812 63.2767H13.1404C11.2378 63.2767 9.78822 61.9734 9.78822 60.3634L9.60702 51.9067C13.231 51.4467 15.949 48.7633 15.949 45.62L15.949 13.88L66.2322 13.88V45.5433C66.1416 48.6867 68.769 51.2933 72.2118 51.83ZM78.4632 12.8833V45.5433C78.4632 47.8433 76.2888 49.6833 73.6614 49.6833C71.034 49.6833 68.8596 47.8433 68.8596 45.5433V13.7267C72.1212 13.5733 74.7486 11.58 75.564 8.97334C77.1948 9.66334 78.4632 11.12 78.4632 12.8833ZM68.316 3.22334C70.9434 3.22334 73.1178 5.06335 73.1178 7.36335C73.1178 9.66335 70.9434 11.5033 68.316 11.5033L14.3182 11.5033C11.6908 11.5033 9.51642 9.66335 9.51642 7.36335C9.51642 5.06335 11.6908 3.22334 14.3182 3.22334L68.316 3.22334Z" fill="#00FF00"/>
<path d="M72.2118 51.83L72.393 60.3634C72.393 61.9734 70.8528 63.2767 69.0408 63.2767L41.1812 63.2767H13.1404C11.2378 63.2767 9.78822 61.9734 9.78822 60.3634L9.60702 51.9067C13.231 51.4467 15.949 48.7633 15.949 45.62L15.949 13.88L66.2322 13.88V45.5433C66.1416 48.6867 68.769 51.2933 72.2118 51.83Z" fill="#00FF00" fill-opacity="0.75"/>
<path d="M78.4632 12.8833V45.5433C78.4632 47.8433 76.2888 49.6833 73.6614 49.6833C71.034 49.6833 68.8596 47.8433 68.8596 45.5433V13.7267C72.1212 13.5733 74.7486 11.58 75.564 8.97334C77.1948 9.66334 78.4632 11.12 78.4632 12.8833Z" fill="#00FF00" fill-opacity="0.75"/>
<path d="M68.316 3.22334C70.9434 3.22334 73.1178 5.06335 73.1178 7.36335C73.1178 9.66335 70.9434 11.5033 68.316 11.5033L14.3182 11.5033C11.6908 11.5033 9.51642 9.66335 9.51642 7.36335C9.51642 5.06335 11.6908 3.22334 14.3182 3.22334L68.316 3.22334Z" fill="#00FF00" fill-opacity="0.75"/>
<path d="M3.62741 45.5433L3.62741 12.8067C3.62741 10.89 5.07701 9.35667 7.07022 8.82001C7.79502 11.35 10.2412 13.2667 13.231 13.65L13.231 45.5433C13.231 47.8433 11.0566 49.6833 8.42922 49.6833C5.80181 49.6833 3.62741 47.8433 3.62741 45.5433Z" fill="#00FF00" fill-opacity="0.75"/>
<path d="M6.97962 6.59668C3.62741 7.21001 1 9.74001 1 12.8833L1 45.5433C1 48.61 3.53681 51.2167 6.88901 51.83L7.07022 60.3634C7.16082 63.2001 9.78822 65.5001 13.1404 65.5001H69.0408C72.393 65.5001 75.0204 63.2001 75.0204 60.3634L74.8392 51.9067C78.3726 51.37 81 48.7633 81 45.62V12.8833C81 9.97001 78.735 7.51667 75.7452 6.75001C75.3828 3.53001 72.2118 1.00001 68.316 1.00001H14.3182C10.6036 1.00001 7.43262 3.45335 6.97962 6.59668ZM3.62741 45.5433L3.62741 12.8067C3.62741 10.89 5.07701 9.35667 7.07022 8.82001C7.79502 11.35 10.2412 13.2667 13.231 13.65L13.231 45.5433C13.231 47.8433 11.0566 49.6833 8.42922 49.6833C5.80181 49.6833 3.62741 47.8433 3.62741 45.5433ZM72.2118 51.83L72.393 60.3634C72.393 61.9734 70.8528 63.2767 69.0408 63.2767L41.1812 63.2767H13.1404C11.2378 63.2767 9.78822 61.9734 9.78822 60.3634L9.60702 51.9067C13.231 51.4467 15.949 48.7633 15.949 45.62L15.949 13.88L66.2322 13.88V45.5433C66.1416 48.6867 68.769 51.2933 72.2118 51.83ZM78.4632 12.8833V45.5433C78.4632 47.8433 76.2888 49.6833 73.6614 49.6833C71.034 49.6833 68.8596 47.8433 68.8596 45.5433V13.7267C72.1212 13.5733 74.7486 11.58 75.564 8.97334C77.1948 9.66334 78.4632 11.12 78.4632 12.8833ZM68.316 3.22334C70.9434 3.22334 73.1178 5.06335 73.1178 7.36335C73.1178 9.66335 70.9434 11.5033 68.316 11.5033L14.3182 11.5033C11.6908 11.5033 9.51642 9.66335 9.51642 7.36335C9.51642 5.06335 11.6908 3.22334 14.3182 3.22334L68.316 3.22334Z" stroke="#00FF00" stroke-width="2"/>
<path d="M72.2118 51.83L72.393 60.3634C72.393 61.9734 70.8528 63.2767 69.0408 63.2767L41.1812 63.2767H13.1404C11.2378 63.2767 9.78822 61.9734 9.78822 60.3634L9.60702 51.9067C13.231 51.4467 15.949 48.7633 15.949 45.62L15.949 13.88L66.2322 13.88V45.5433C66.1416 48.6867 68.769 51.2933 72.2118 51.83Z" stroke="#00FF00" stroke-width="2"/>
<path d="M78.4632 12.8833V45.5433C78.4632 47.8433 76.2888 49.6833 73.6614 49.6833C71.034 49.6833 68.8596 47.8433 68.8596 45.5433V13.7267C72.1212 13.5733 74.7486 11.58 75.564 8.97334C77.1948 9.66334 78.4632 11.12 78.4632 12.8833Z" stroke="#00FF00" stroke-width="2"/>
<path d="M68.316 3.22334C70.9434 3.22334 73.1178 5.06335 73.1178 7.36335C73.1178 9.66335 70.9434 11.5033 68.316 11.5033L14.3182 11.5033C11.6908 11.5033 9.51642 9.66335 9.51642 7.36335C9.51642 5.06335 11.6908 3.22334 14.3182 3.22334L68.316 3.22334Z" stroke="#00FF00" stroke-width="2"/>
<path d="M3.62741 45.5433L3.62741 12.8067C3.62741 10.89 5.07701 9.35667 7.07022 8.82001C7.79502 11.35 10.2412 13.2667 13.231 13.65L13.231 45.5433C13.231 47.8433 11.0566 49.6833 8.42922 49.6833C5.80181 49.6833 3.62741 47.8433 3.62741 45.5433Z" stroke="#00FF00" stroke-width="2"/>
</svg>
