<svg width="82" height="67" viewBox="0 0 82 67" fill="none" xmlns="http://www.w3.org/2000/svg">
<path d="M6.97962 6.59662C3.62741 7.20995 1 9.73995 1 12.8833L1 45.5433C1 48.6099 3.53681 51.2166 6.88901 51.8299L7.07022 60.3633C7.16082 63.2 9.78822 65.5 13.1404 65.5H69.0408C72.393 65.5 75.0204 63.2 75.0204 60.3633L74.8392 51.9066C78.3726 51.3699 81 48.7633 81 45.6199V12.8833C81 9.96995 78.735 7.51661 75.7452 6.74995C75.3828 3.52995 72.2118 0.999947 68.316 0.999947H14.3182C10.6036 0.999947 7.43262 3.45329 6.97962 6.59662ZM3.62741 45.5433L3.62741 12.8066C3.62741 10.8899 5.07701 9.35661 7.07022 8.81995C7.79502 11.3499 10.2412 13.2666 13.231 13.6499L13.231 45.5433C13.231 47.8433 11.0566 49.6833 8.42922 49.6833C5.80181 49.6833 3.62741 47.8433 3.62741 45.5433ZM72.2118 51.8299L72.393 60.3633C72.393 61.9733 70.8528 63.2767 69.0408 63.2767L41.1812 63.2767H13.1404C11.2378 63.2767 9.78822 61.9733 9.78822 60.3633L9.60702 51.9066C13.231 51.4466 15.949 48.7633 15.949 45.6199L15.949 13.88L66.2322 13.88V45.5433C66.1416 48.6866 68.769 51.2933 72.2118 51.8299ZM78.4632 12.8833V45.5433C78.4632 47.8433 76.2888 49.6833 73.6614 49.6833C71.034 49.6833 68.8596 47.8433 68.8596 45.5433V29.6349V13.7266C72.1212 13.5733 74.7486 11.5799 75.564 8.97328C77.1948 9.66328 78.4632 11.1199 78.4632 12.8833ZM68.316 3.22328C70.9434 3.22328 73.1178 5.06329 73.1178 7.36329C73.1178 9.66328 70.9434 11.5033 68.316 11.5033L14.3182 11.5033C11.6908 11.5033 9.51642 9.66328 9.51642 7.36329C9.51642 5.06329 11.6908 3.22328 14.3182 3.22328L68.316 3.22328Z" fill="white"/>
<path d="M72.2118 51.8299L72.393 60.3633C72.393 61.9733 70.8528 63.2767 69.0408 63.2767L41.1812 63.2767H13.1404C11.2378 63.2767 9.78822 61.9733 9.78822 60.3633L9.60702 51.9066C13.231 51.4466 15.949 48.7633 15.949 45.6199L15.949 13.88L66.2322 13.88V45.5433C66.1416 48.6866 68.769 51.2933 72.2118 51.8299Z" fill="white" fill-opacity="0.75"/>
<path d="M68.316 3.22328C70.9434 3.22328 73.1178 5.06329 73.1178 7.36329C73.1178 9.66328 70.9434 11.5033 68.316 11.5033L14.3182 11.5033C11.6908 11.5033 9.51642 9.66328 9.51642 7.36329C9.51642 5.06329 11.6908 3.22328 14.3182 3.22328L68.316 3.22328Z" fill="white" fill-opacity="0.75"/>
<path d="M3.62741 45.5433L3.62741 12.8066C3.62741 10.8899 5.07701 9.35661 7.07022 8.81995C7.79502 11.3499 10.2412 13.2666 13.231 13.6499L13.231 45.5433C13.231 47.8433 11.0566 49.6833 8.42922 49.6833C5.80181 49.6833 3.62741 47.8433 3.62741 45.5433Z" fill="white" fill-opacity="0.75"/>
<path d="M78.4632 12.8833V45.5433C78.4632 47.8433 76.2888 49.6833 73.6614 49.6833C71.034 49.6833 68.8596 47.8433 68.8596 45.5433V29.6349V13.7266C72.1212 13.5733 74.7486 11.5799 75.564 8.97328C77.1948 9.66328 78.4632 11.1199 78.4632 12.8833Z" fill="white" fill-opacity="0.75"/>
<path d="M6.97962 6.59662C3.62741 7.20995 1 9.73995 1 12.8833L1 45.5433C1 48.6099 3.53681 51.2166 6.88901 51.8299L7.07022 60.3633C7.16082 63.2 9.78822 65.5 13.1404 65.5H69.0408C72.393 65.5 75.0204 63.2 75.0204 60.3633L74.8392 51.9066C78.3726 51.3699 81 48.7633 81 45.6199V12.8833C81 9.96995 78.735 7.51661 75.7452 6.74995C75.3828 3.52995 72.2118 0.999947 68.316 0.999947H14.3182C10.6036 0.999947 7.43262 3.45329 6.97962 6.59662ZM3.62741 45.5433L3.62741 12.8066C3.62741 10.8899 5.07701 9.35661 7.07022 8.81995C7.79502 11.3499 10.2412 13.2666 13.231 13.6499L13.231 45.5433C13.231 47.8433 11.0566 49.6833 8.42922 49.6833C5.80181 49.6833 3.62741 47.8433 3.62741 45.5433ZM72.2118 51.8299L72.393 60.3633C72.393 61.9733 70.8528 63.2767 69.0408 63.2767L41.1812 63.2767H13.1404C11.2378 63.2767 9.78822 61.9733 9.78822 60.3633L9.60702 51.9066C13.231 51.4466 15.949 48.7633 15.949 45.6199L15.949 13.88L66.2322 13.88V45.5433C66.1416 48.6866 68.769 51.2933 72.2118 51.8299ZM78.4632 12.8833V45.5433C78.4632 47.8433 76.2888 49.6833 73.6614 49.6833C71.034 49.6833 68.8596 47.8433 68.8596 45.5433V29.6349V13.7266C72.1212 13.5733 74.7486 11.5799 75.564 8.97328C77.1948 9.66328 78.4632 11.1199 78.4632 12.8833ZM68.316 3.22328C70.9434 3.22328 73.1178 5.06329 73.1178 7.36329C73.1178 9.66328 70.9434 11.5033 68.316 11.5033L14.3182 11.5033C11.6908 11.5033 9.51642 9.66328 9.51642 7.36329C9.51642 5.06329 11.6908 3.22328 14.3182 3.22328L68.316 3.22328Z" stroke="white" stroke-width="2"/>
<path d="M72.2118 51.8299L72.393 60.3633C72.393 61.9733 70.8528 63.2767 69.0408 63.2767L41.1812 63.2767H13.1404C11.2378 63.2767 9.78822 61.9733 9.78822 60.3633L9.60702 51.9066C13.231 51.4466 15.949 48.7633 15.949 45.6199L15.949 13.88L66.2322 13.88V45.5433C66.1416 48.6866 68.769 51.2933 72.2118 51.8299Z" stroke="white" stroke-width="2"/>
<path d="M68.316 3.22328C70.9434 3.22328 73.1178 5.06329 73.1178 7.36329C73.1178 9.66328 70.9434 11.5033 68.316 11.5033L14.3182 11.5033C11.6908 11.5033 9.51642 9.66328 9.51642 7.36329C9.51642 5.06329 11.6908 3.22328 14.3182 3.22328L68.316 3.22328Z" stroke="white" stroke-width="2"/>
<path d="M3.62741 45.5433L3.62741 12.8066C3.62741 10.8899 5.07701 9.35661 7.07022 8.81995C7.79502 11.3499 10.2412 13.2666 13.231 13.6499L13.231 45.5433C13.231 47.8433 11.0566 49.6833 8.42922 49.6833C5.80181 49.6833 3.62741 47.8433 3.62741 45.5433Z" stroke="white" stroke-width="2"/>
<path d="M78.4632 12.8833V45.5433C78.4632 47.8433 76.2888 49.6833 73.6614 49.6833C71.034 49.6833 68.8596 47.8433 68.8596 45.5433V29.6349V13.7266C72.1212 13.5733 74.7486 11.5799 75.564 8.97328C77.1948 9.66328 78.4632 11.1199 78.4632 12.8833Z" stroke="white" stroke-width="2"/>
</svg>
