<svg width="26" height="26" viewBox="0 0 26 26" fill="none" xmlns="http://www.w3.org/2000/svg">
<path d="M23.3048 0.487061H2.33048C1.04289 0.487061 0 1.48825 0 2.72436V22.86C0 24.0961 1.04289 25.0973 2.33048 25.0973H13.9829V15.0295H10.4872V11.6735H13.9829V9.8714C13.9829 6.45953 15.7144 4.96166 18.6683 4.96166C20.0829 4.96166 20.831 5.06233 21.1852 5.1082V8.3176H19.1705C17.9167 8.3176 17.4786 8.95299 17.4786 10.2394V11.6735H21.1538L20.655 15.0295H17.4786V25.0973H23.3048C24.5924 25.0973 25.6353 24.0961 25.6353 22.86V2.72436C25.6353 1.48825 24.5912 0.487061 23.3048 0.487061Z" fill="white"/>
</svg>
