<svg width="26" height="26" viewBox="0 0 26 26" fill="none" xmlns="http://www.w3.org/2000/svg">
<path d="M7.32208 0.487061C3.38992 0.487061 0.201172 3.5483 0.201172 7.32325V18.2611C0.201172 22.0361 3.38992 25.0973 7.32208 25.0973H18.7155C22.6477 25.0973 25.8365 22.0361 25.8365 18.2611V7.32325C25.8365 3.5483 22.6477 0.487061 18.7155 0.487061H7.32208ZM21.5639 3.22153C22.3501 3.22153 22.9881 3.83406 22.9881 4.58877C22.9881 5.34349 22.3501 5.95601 21.5639 5.95601C20.7778 5.95601 20.1397 5.34349 20.1397 4.58877C20.1397 3.83406 20.7778 3.22153 21.5639 3.22153ZM13.0188 5.95601C16.951 5.95601 20.1397 9.01725 20.1397 12.7922C20.1397 16.5671 16.951 19.6284 13.0188 19.6284C9.08664 19.6284 5.8979 16.5671 5.8979 12.7922C5.8979 9.01725 9.08664 5.95601 13.0188 5.95601ZM13.0188 8.69048C11.8857 8.69048 10.7989 9.12263 9.99766 9.89185C9.19641 10.6611 8.74627 11.7044 8.74627 12.7922C8.74627 13.88 9.19641 14.9233 9.99766 15.6925C10.7989 16.4618 11.8857 16.8939 13.0188 16.8939C14.152 16.8939 15.2387 16.4618 16.04 15.6925C16.8412 14.9233 17.2914 13.88 17.2914 12.7922C17.2914 11.7044 16.8412 10.6611 16.04 9.89185C15.2387 9.12263 14.152 8.69048 13.0188 8.69048Z" fill="white"/>
</svg>
