<svg width="35" height="25" viewBox="0 0 35 25" fill="none" xmlns="http://www.w3.org/2000/svg">
<path d="M34.0361 4.22989C33.7169 2.53853 32.1961 1.30682 30.4312 0.922284C27.79 0.384535 22.9021 0 17.6135 0C12.3281 0 7.36193 0.384535 4.71766 0.922284C2.95586 1.30682 1.43189 2.46043 1.1127 4.22989C0.790381 6.15257 0.471191 8.84432 0.471191 12.3051C0.471191 15.766 0.790381 18.4577 1.19093 20.3804C1.51325 22.0717 3.03409 23.3034 4.79589 23.688C7.59975 24.2257 12.4064 24.6103 17.6949 24.6103C22.9834 24.6103 27.79 24.2257 30.5939 23.688C32.3557 23.3034 33.8765 22.1498 34.1989 20.3804C34.518 18.4577 34.9186 15.6878 35 12.3051C34.8372 8.84432 34.4367 6.15257 34.0361 4.22989ZM13.2888 17.6886V6.92164L23.0617 12.3051L13.2888 17.6886Z" fill="white"/>
</svg>
